<svg width="180" height="180" viewBox="0 0 180 180" fill="none" xmlns="http://www.w3.org/2000/svg">
<circle cx="90" cy="90" r="90" fill="#353956"/>
<path d="M75.4952 115.477C75.4952 122.697 69.5865 128.604 62.3648 128.604C55.1431 128.604 49.2344 122.697 49.2344 115.477C49.2344 108.257 55.1431 102.35 62.3648 102.35C69.5865 102.35 75.4952 108.257 75.4952 115.477ZM102.413 98.084L74.5104 125.979C68.2735 132.214 57.9333 132.214 51.6963 125.979C45.0031 119.286 45.6957 109.019 51.6963 103.333L105.859 49.1842C106.844 48.1997 106.844 46.7229 105.859 45.7384C104.874 44.7539 103.397 44.7539 102.413 45.7384L48.2496 99.8873C40.0759 108.061 39.7592 121.261 48.2496 129.751C56.4085 137.906 69.6128 138.258 78.1213 129.751L106.023 101.856C107.008 100.87 107.008 99.3951 106.023 98.4089C105.039 97.2636 103.397 97.2636 102.413 98.084Z" fill="white"/>
<path d="M76.8951 96.8697C76.0121 97.7525 74.1689 97.7525 73.2842 96.8697C72.4636 95.8852 72.4636 94.2443 73.4484 93.4238L112.84 54.0428C113.824 53.0583 115.302 53.0583 116.286 54.0428C117.273 55.0273 117.273 56.5041 116.286 57.4886L76.8951 96.8697Z" fill="white"/>
<path d="M105.075 85.9909C104.583 86.4831 103.927 86.6472 103.27 86.6472C102.614 86.6472 101.957 86.4831 101.629 85.9909C100.644 85.0063 100.644 83.5295 101.629 82.545L132.813 51.3684C133.798 50.3838 135.275 50.3838 136.26 51.3684C137.247 52.3529 137.247 53.8297 136.26 54.8142L105.075 85.9909Z" fill="white"/>
</svg>
