<svg width="24" height="20" viewBox="0 0 24 20" fill="none" xmlns="http://www.w3.org/2000/svg">
<path d="M23.6667 6.04269V15.5417C23.6667 16.5102 23.2962 17.442 22.6311 18.146C21.9659 18.8499 21.0566 19.2727 20.0897 19.3275L19.875 19.3334H4.125C3.15651 19.3334 2.2247 18.9629 1.52073 18.2977C0.816762 17.6326 0.393999 16.7233 0.339167 15.7564L0.333334 15.5417V6.04269L11.594 11.9414C11.7193 12.007 11.8586 12.0412 12 12.0412C12.1414 12.0412 12.2807 12.007 12.406 11.9414L23.6667 6.04269ZM4.125 0.666687H19.875C20.8148 0.666574 21.7212 1.01552 22.4184 1.64583C23.1155 2.27615 23.5537 3.14292 23.648 4.07802L12 10.1797L0.352001 4.07802C0.442445 3.18005 0.850226 2.34379 1.50204 1.71956C2.15386 1.09533 3.00696 0.724072 3.908 0.672521L4.125 0.666687H19.875H4.125Z" fill="#CCCCCC"/>
</svg>
